<mxfile host="www.draw.io" modified="2020-02-16T13:50:07.439Z" agent="Mozilla/5.0 (Windows NT 10.0; Win64; x64) AppleWebKit/537.36 (KHTML, like Gecko) Chrome/80.0.3987.87 Safari/537.36" etag="np0ieDkNGf5-v3VQNPZ-" version="12.7.0" type="github">
  <diagram id="icoGu03oYGABaPcr3V4Y" name="Page-1">
    <mxGraphModel dx="1038" dy="547" grid="1" gridSize="10" guides="1" tooltips="1" connect="1" arrows="1" fold="1" page="1" pageScale="1" pageWidth="827" pageHeight="1169" math="0" shadow="0">
      <root>
        <mxCell id="0"/>
        <mxCell id="1" parent="0"/>
        <mxCell id="W3oitvMvnciTX-xYWSEt-6" value="" style="edgeStyle=orthogonalEdgeStyle;rounded=0;orthogonalLoop=1;jettySize=auto;html=1;" parent="1" source="W3oitvMvnciTX-xYWSEt-1" target="W3oitvMvnciTX-xYWSEt-5" edge="1">
          <mxGeometry relative="1" as="geometry"/>
        </mxCell>
        <mxCell id="W3oitvMvnciTX-xYWSEt-1" value="发起支付" style="strokeWidth=2;html=1;shape=mxgraph.flowchart.terminator;whiteSpace=wrap;" parent="1" vertex="1">
          <mxGeometry x="40" y="200" width="100" height="60" as="geometry"/>
        </mxCell>
        <mxCell id="W3oitvMvnciTX-xYWSEt-8" value="" style="edgeStyle=orthogonalEdgeStyle;rounded=0;orthogonalLoop=1;jettySize=auto;html=1;" parent="1" source="W3oitvMvnciTX-xYWSEt-5" target="W3oitvMvnciTX-xYWSEt-7" edge="1">
          <mxGeometry relative="1" as="geometry"/>
        </mxCell>
        <mxCell id="W3oitvMvnciTX-xYWSEt-5" value="支付路由" style="strokeWidth=2;html=1;shape=mxgraph.flowchart.decision;whiteSpace=wrap;" parent="1" vertex="1">
          <mxGeometry x="230" y="180" width="100" height="100" as="geometry"/>
        </mxCell>
        <mxCell id="W3oitvMvnciTX-xYWSEt-10" value="" style="edgeStyle=orthogonalEdgeStyle;rounded=0;orthogonalLoop=1;jettySize=auto;html=1;" parent="1" source="W3oitvMvnciTX-xYWSEt-7" target="W3oitvMvnciTX-xYWSEt-9" edge="1">
          <mxGeometry relative="1" as="geometry"/>
        </mxCell>
        <mxCell id="W3oitvMvnciTX-xYWSEt-7" value="支付" style="strokeWidth=2;html=1;shape=mxgraph.flowchart.terminator;whiteSpace=wrap;" parent="1" vertex="1">
          <mxGeometry x="400" y="200" width="100" height="60" as="geometry"/>
        </mxCell>
        <mxCell id="W3oitvMvnciTX-xYWSEt-9" value="结果处理" style="strokeWidth=2;html=1;shape=mxgraph.flowchart.terminator;whiteSpace=wrap;" parent="1" vertex="1">
          <mxGeometry x="560" y="200" width="100" height="60" as="geometry"/>
        </mxCell>
        <mxCell id="W3oitvMvnciTX-xYWSEt-13" value="" style="edgeStyle=orthogonalEdgeStyle;rounded=0;orthogonalLoop=1;jettySize=auto;html=1;" parent="1" source="W3oitvMvnciTX-xYWSEt-11" target="W3oitvMvnciTX-xYWSEt-12" edge="1">
          <mxGeometry relative="1" as="geometry"/>
        </mxCell>
        <mxCell id="W3oitvMvnciTX-xYWSEt-11" value="发起支付" style="strokeWidth=2;html=1;shape=mxgraph.flowchart.start_1;whiteSpace=wrap;" parent="1" vertex="1">
          <mxGeometry x="90" y="490" width="100" height="60" as="geometry"/>
        </mxCell>
        <mxCell id="W3oitvMvnciTX-xYWSEt-22" value="" style="edgeStyle=orthogonalEdgeStyle;rounded=0;orthogonalLoop=1;jettySize=auto;html=1;" parent="1" source="W3oitvMvnciTX-xYWSEt-12" target="W3oitvMvnciTX-xYWSEt-21" edge="1">
          <mxGeometry relative="1" as="geometry"/>
        </mxCell>
        <mxCell id="W3oitvMvnciTX-xYWSEt-12" value="" style="rounded=1;whiteSpace=wrap;html=1;absoluteArcSize=1;arcSize=14;strokeWidth=2;" parent="1" vertex="1">
          <mxGeometry x="280" y="450" width="220" height="140" as="geometry"/>
        </mxCell>
        <mxCell id="W3oitvMvnciTX-xYWSEt-34" value="" style="edgeStyle=orthogonalEdgeStyle;rounded=0;orthogonalLoop=1;jettySize=auto;html=1;" parent="1" source="W3oitvMvnciTX-xYWSEt-21" target="W3oitvMvnciTX-xYWSEt-33" edge="1">
          <mxGeometry relative="1" as="geometry">
            <Array as="points">
              <mxPoint x="710" y="815"/>
            </Array>
          </mxGeometry>
        </mxCell>
        <mxCell id="W3oitvMvnciTX-xYWSEt-21" value="" style="rounded=1;whiteSpace=wrap;html=1;absoluteArcSize=1;arcSize=14;strokeWidth=2;" parent="1" vertex="1">
          <mxGeometry x="580" y="450" width="340" height="190" as="geometry"/>
        </mxCell>
        <mxCell id="W3oitvMvnciTX-xYWSEt-33" value="" style="rounded=1;whiteSpace=wrap;html=1;absoluteArcSize=1;arcSize=14;strokeWidth=2;" parent="1" vertex="1">
          <mxGeometry x="243" y="740" width="277" height="150" as="geometry"/>
        </mxCell>
        <mxCell id="W3oitvMvnciTX-xYWSEt-17" value="" style="edgeStyle=orthogonalEdgeStyle;rounded=0;orthogonalLoop=1;jettySize=auto;html=1;" parent="1" source="W3oitvMvnciTX-xYWSEt-15" target="W3oitvMvnciTX-xYWSEt-16" edge="1">
          <mxGeometry relative="1" as="geometry"/>
        </mxCell>
        <mxCell id="W3oitvMvnciTX-xYWSEt-15" value="&lt;span style=&quot;color: rgb(51 , 51 , 51) ; font-family: &amp;#34;helvetica neue&amp;#34; , &amp;#34;arial&amp;#34; , &amp;#34;hiragino sans gb&amp;#34; , &amp;#34;stheiti&amp;#34; , &amp;#34;microsoft yahei&amp;#34; , &amp;#34;wenquanyi micro hei&amp;#34; , &amp;#34;simsun&amp;#34; , &amp;#34;song&amp;#34; , sans-serif ; font-size: 15px ; background-color: rgb(255 , 255 , 255)&quot;&gt;基础验证&lt;/span&gt;" style="rounded=1;whiteSpace=wrap;html=1;absoluteArcSize=1;arcSize=14;strokeWidth=2;" parent="1" vertex="1">
          <mxGeometry x="300" y="490" width="70" height="50" as="geometry"/>
        </mxCell>
        <mxCell id="W3oitvMvnciTX-xYWSEt-16" value="订单处理" style="rounded=1;whiteSpace=wrap;html=1;absoluteArcSize=1;arcSize=14;strokeWidth=2;" parent="1" vertex="1">
          <mxGeometry x="400" y="490" width="60" height="50" as="geometry"/>
        </mxCell>
        <mxCell id="W3oitvMvnciTX-xYWSEt-20" value="业务处理" style="text;html=1;strokeColor=none;fillColor=none;align=center;verticalAlign=middle;whiteSpace=wrap;rounded=0;" parent="1" vertex="1">
          <mxGeometry x="280" y="420" width="110" height="20" as="geometry"/>
        </mxCell>
        <mxCell id="W3oitvMvnciTX-xYWSEt-26" value="" style="edgeStyle=orthogonalEdgeStyle;rounded=0;orthogonalLoop=1;jettySize=auto;html=1;" parent="1" source="W3oitvMvnciTX-xYWSEt-23" target="W3oitvMvnciTX-xYWSEt-25" edge="1">
          <mxGeometry relative="1" as="geometry"/>
        </mxCell>
        <mxCell id="W3oitvMvnciTX-xYWSEt-23" value="&lt;font color=&quot;#333333&quot; face=&quot;helvetica neue, arial, hiragino sans gb, stheiti, microsoft yahei, wenquanyi micro hei, simsun, song, sans-serif&quot;&gt;&lt;span style=&quot;font-size: 15px ; background-color: rgb(255 , 255 , 255)&quot;&gt;风控&lt;/span&gt;&lt;/font&gt;" style="rounded=1;whiteSpace=wrap;html=1;absoluteArcSize=1;arcSize=14;strokeWidth=2;" parent="1" vertex="1">
          <mxGeometry x="590" y="490" width="70" height="50" as="geometry"/>
        </mxCell>
        <mxCell id="W3oitvMvnciTX-xYWSEt-28" value="" style="edgeStyle=orthogonalEdgeStyle;rounded=0;orthogonalLoop=1;jettySize=auto;html=1;" parent="1" source="W3oitvMvnciTX-xYWSEt-25" target="W3oitvMvnciTX-xYWSEt-27" edge="1">
          <mxGeometry relative="1" as="geometry"/>
        </mxCell>
        <mxCell id="W3oitvMvnciTX-xYWSEt-25" value="&lt;font color=&quot;#333333&quot; face=&quot;helvetica neue, arial, hiragino sans gb, stheiti, microsoft yahei, wenquanyi micro hei, simsun, song, sans-serif&quot;&gt;&lt;span style=&quot;font-size: 15px ; background-color: rgb(255 , 255 , 255)&quot;&gt;路由&lt;/span&gt;&lt;/font&gt;" style="rounded=1;whiteSpace=wrap;html=1;absoluteArcSize=1;arcSize=14;strokeWidth=2;" parent="1" vertex="1">
          <mxGeometry x="690" y="490" width="70" height="50" as="geometry"/>
        </mxCell>
        <mxCell id="W3oitvMvnciTX-xYWSEt-30" value="" style="edgeStyle=orthogonalEdgeStyle;rounded=0;orthogonalLoop=1;jettySize=auto;html=1;" parent="1" source="W3oitvMvnciTX-xYWSEt-27" target="W3oitvMvnciTX-xYWSEt-29" edge="1">
          <mxGeometry relative="1" as="geometry"/>
        </mxCell>
        <mxCell id="W3oitvMvnciTX-xYWSEt-27" value="&lt;font color=&quot;#333333&quot; face=&quot;helvetica neue, arial, hiragino sans gb, stheiti, microsoft yahei, wenquanyi micro hei, simsun, song, sans-serif&quot;&gt;&lt;span style=&quot;font-size: 15px ; background-color: rgb(255 , 255 , 255)&quot;&gt;支付渠道&lt;/span&gt;&lt;/font&gt;" style="rounded=1;whiteSpace=wrap;html=1;absoluteArcSize=1;arcSize=14;strokeWidth=2;" parent="1" vertex="1">
          <mxGeometry x="790" y="490" width="70" height="50" as="geometry"/>
        </mxCell>
        <mxCell id="W3oitvMvnciTX-xYWSEt-32" value="" style="edgeStyle=orthogonalEdgeStyle;rounded=0;orthogonalLoop=1;jettySize=auto;html=1;" parent="1" source="W3oitvMvnciTX-xYWSEt-29" target="W3oitvMvnciTX-xYWSEt-31" edge="1">
          <mxGeometry relative="1" as="geometry"/>
        </mxCell>
        <mxCell id="W3oitvMvnciTX-xYWSEt-29" value="&lt;font color=&quot;#333333&quot; face=&quot;helvetica neue, arial, hiragino sans gb, stheiti, microsoft yahei, wenquanyi micro hei, simsun, song, sans-serif&quot;&gt;&lt;span style=&quot;font-size: 15px ; background-color: rgb(255 , 255 , 255)&quot;&gt;终态获取&lt;/span&gt;&lt;/font&gt;" style="rounded=1;whiteSpace=wrap;html=1;absoluteArcSize=1;arcSize=14;strokeWidth=2;" parent="1" vertex="1">
          <mxGeometry x="790" y="570" width="70" height="50" as="geometry"/>
        </mxCell>
        <mxCell id="W3oitvMvnciTX-xYWSEt-31" value="&lt;font color=&quot;#333333&quot; face=&quot;helvetica neue, arial, hiragino sans gb, stheiti, microsoft yahei, wenquanyi micro hei, simsun, song, sans-serif&quot;&gt;&lt;span style=&quot;font-size: 15px ; background-color: rgb(255 , 255 , 255)&quot;&gt;回执结果处理&lt;/span&gt;&lt;/font&gt;" style="rounded=1;whiteSpace=wrap;html=1;absoluteArcSize=1;arcSize=14;strokeWidth=2;" parent="1" vertex="1">
          <mxGeometry x="660" y="570" width="70" height="50" as="geometry"/>
        </mxCell>
        <mxCell id="W3oitvMvnciTX-xYWSEt-24" value="消息队列" style="text;html=1;strokeColor=none;fillColor=none;align=center;verticalAlign=middle;whiteSpace=wrap;rounded=0;" parent="1" vertex="1">
          <mxGeometry x="520" y="490" width="50" height="20" as="geometry"/>
        </mxCell>
        <mxCell id="W3oitvMvnciTX-xYWSEt-35" value="&lt;font color=&quot;#333333&quot; face=&quot;helvetica neue, arial, hiragino sans gb, stheiti, microsoft yahei, wenquanyi micro hei, simsun, song, sans-serif&quot;&gt;&lt;span style=&quot;font-size: 15px ; background-color: rgb(255 , 255 , 255)&quot;&gt;完善业务&lt;/span&gt;&lt;/font&gt;" style="rounded=1;whiteSpace=wrap;html=1;absoluteArcSize=1;arcSize=14;strokeWidth=2;" parent="1" vertex="1">
          <mxGeometry x="270" y="800" width="70" height="50" as="geometry"/>
        </mxCell>
        <mxCell id="W3oitvMvnciTX-xYWSEt-36" value="&lt;font color=&quot;#333333&quot; face=&quot;helvetica neue, arial, hiragino sans gb, stheiti, microsoft yahei, wenquanyi micro hei, simsun, song, sans-serif&quot;&gt;&lt;span style=&quot;font-size: 15px ; background-color: rgb(255 , 255 , 255)&quot;&gt;支付流水&lt;/span&gt;&lt;/font&gt;" style="rounded=1;whiteSpace=wrap;html=1;absoluteArcSize=1;arcSize=14;strokeWidth=2;" parent="1" vertex="1">
          <mxGeometry x="395" y="800" width="70" height="50" as="geometry"/>
        </mxCell>
        <mxCell id="W3oitvMvnciTX-xYWSEt-37" value="结果处理" style="text;html=1;strokeColor=none;fillColor=none;align=center;verticalAlign=middle;whiteSpace=wrap;rounded=0;" parent="1" vertex="1">
          <mxGeometry x="250" y="710" width="120" height="30" as="geometry"/>
        </mxCell>
        <mxCell id="W3oitvMvnciTX-xYWSEt-38" value="支付网关" style="text;html=1;strokeColor=none;fillColor=none;align=center;verticalAlign=middle;whiteSpace=wrap;rounded=0;" parent="1" vertex="1">
          <mxGeometry x="580" y="420" width="110" height="20" as="geometry"/>
        </mxCell>
        <mxCell id="W3oitvMvnciTX-xYWSEt-45" style="edgeStyle=orthogonalEdgeStyle;rounded=0;orthogonalLoop=1;jettySize=auto;html=1;entryX=0;entryY=0.5;entryDx=0;entryDy=0;" parent="1" source="W3oitvMvnciTX-xYWSEt-39" target="W3oitvMvnciTX-xYWSEt-40" edge="1">
          <mxGeometry relative="1" as="geometry"/>
        </mxCell>
        <mxCell id="W3oitvMvnciTX-xYWSEt-39" value="客户端&lt;br&gt;发起支付" style="strokeWidth=2;html=1;shape=mxgraph.flowchart.start_1;whiteSpace=wrap;" parent="1" vertex="1">
          <mxGeometry x="80" y="1315" width="100" height="60" as="geometry"/>
        </mxCell>
        <mxCell id="W3oitvMvnciTX-xYWSEt-59" value="" style="edgeStyle=orthogonalEdgeStyle;rounded=0;orthogonalLoop=1;jettySize=auto;html=1;fontSize=15;" parent="1" source="W3oitvMvnciTX-xYWSEt-40" target="W3oitvMvnciTX-xYWSEt-58" edge="1">
          <mxGeometry relative="1" as="geometry"/>
        </mxCell>
        <mxCell id="W3oitvMvnciTX-xYWSEt-40" value="" style="rounded=1;whiteSpace=wrap;html=1;absoluteArcSize=1;arcSize=14;strokeWidth=2;dashed=1;" parent="1" vertex="1">
          <mxGeometry x="295" y="1270" width="315" height="150" as="geometry"/>
        </mxCell>
        <mxCell id="W3oitvMvnciTX-xYWSEt-81" value="" style="edgeStyle=orthogonalEdgeStyle;rounded=0;orthogonalLoop=1;jettySize=auto;html=1;fontSize=19;" parent="1" source="W3oitvMvnciTX-xYWSEt-58" edge="1">
          <mxGeometry relative="1" as="geometry">
            <mxPoint x="915" y="1490" as="targetPoint"/>
          </mxGeometry>
        </mxCell>
        <mxCell id="W3oitvMvnciTX-xYWSEt-58" value="" style="rounded=1;whiteSpace=wrap;html=1;absoluteArcSize=1;arcSize=14;strokeWidth=2;dashed=1;" parent="1" vertex="1">
          <mxGeometry x="720" y="1260" width="410" height="160" as="geometry"/>
        </mxCell>
        <mxCell id="W3oitvMvnciTX-xYWSEt-80" value="" style="rounded=1;whiteSpace=wrap;html=1;absoluteArcSize=1;arcSize=14;strokeWidth=2;dashed=1;" parent="1" vertex="1">
          <mxGeometry x="720" y="1500" width="320" height="160" as="geometry"/>
        </mxCell>
        <mxCell id="W3oitvMvnciTX-xYWSEt-71" value="" style="rounded=1;whiteSpace=wrap;html=1;absoluteArcSize=1;arcSize=14;strokeWidth=2;dashed=1;" parent="1" vertex="1">
          <mxGeometry x="820" y="1060" width="350" height="110" as="geometry"/>
        </mxCell>
        <mxCell id="W3oitvMvnciTX-xYWSEt-46" value="业务受理" style="text;html=1;strokeColor=none;fillColor=none;align=center;verticalAlign=middle;whiteSpace=wrap;rounded=0;dashed=1;fontSize=21;" parent="1" vertex="1">
          <mxGeometry x="300" y="1270" width="105" height="30" as="geometry"/>
        </mxCell>
        <mxCell id="W3oitvMvnciTX-xYWSEt-56" value="" style="edgeStyle=orthogonalEdgeStyle;rounded=0;orthogonalLoop=1;jettySize=auto;html=1;fontSize=15;" parent="1" source="W3oitvMvnciTX-xYWSEt-47" target="W3oitvMvnciTX-xYWSEt-55" edge="1">
          <mxGeometry relative="1" as="geometry"/>
        </mxCell>
        <mxCell id="W3oitvMvnciTX-xYWSEt-47" value="通用处理" style="rounded=1;whiteSpace=wrap;html=1;absoluteArcSize=1;arcSize=14;strokeWidth=2;fontSize=16;fillColor=#dae8fc;strokeColor=#6c8ebf;" parent="1" vertex="1">
          <mxGeometry x="315" y="1330" width="105" height="60" as="geometry"/>
        </mxCell>
        <mxCell id="W3oitvMvnciTX-xYWSEt-55" value="订单处理" style="rounded=1;whiteSpace=wrap;html=1;absoluteArcSize=1;arcSize=14;strokeWidth=2;fontSize=15;fillColor=#dae8fc;strokeColor=#6c8ebf;" parent="1" vertex="1">
          <mxGeometry x="500" y="1330" width="95" height="60" as="geometry"/>
        </mxCell>
        <mxCell id="W3oitvMvnciTX-xYWSEt-48" value="HTTPS" style="text;html=1;strokeColor=none;fillColor=none;align=center;verticalAlign=middle;whiteSpace=wrap;rounded=0;fontSize=21;" parent="1" vertex="1">
          <mxGeometry x="195" y="1340" width="80" height="20" as="geometry"/>
        </mxCell>
        <mxCell id="W3oitvMvnciTX-xYWSEt-49" value="" style="rounded=1;whiteSpace=wrap;html=1;absoluteArcSize=1;arcSize=14;strokeWidth=2;fontSize=21;" parent="1" vertex="1">
          <mxGeometry x="270" y="1080" width="200" height="100" as="geometry"/>
        </mxCell>
        <mxCell id="W3oitvMvnciTX-xYWSEt-50" value="QPS控制" style="rounded=1;whiteSpace=wrap;html=1;fontSize=15;fillColor=#fff2cc;strokeColor=#d6b656;" parent="1" vertex="1">
          <mxGeometry x="280" y="1090" width="80" height="30" as="geometry"/>
        </mxCell>
        <mxCell id="W3oitvMvnciTX-xYWSEt-51" value="参数校验" style="rounded=1;whiteSpace=wrap;html=1;fontSize=15;fillColor=#fff2cc;strokeColor=#d6b656;" parent="1" vertex="1">
          <mxGeometry x="280" y="1130" width="80" height="30" as="geometry"/>
        </mxCell>
        <mxCell id="W3oitvMvnciTX-xYWSEt-52" value="商户接口权限" style="rounded=1;whiteSpace=wrap;html=1;fontSize=15;fillColor=#fff2cc;strokeColor=#d6b656;" parent="1" vertex="1">
          <mxGeometry x="370" y="1090" width="90" height="30" as="geometry"/>
        </mxCell>
        <mxCell id="W3oitvMvnciTX-xYWSEt-54" value="验证签名" style="rounded=1;whiteSpace=wrap;html=1;fontSize=15;fillColor=#fff2cc;strokeColor=#d6b656;" parent="1" vertex="1">
          <mxGeometry x="373" y="1130" width="80" height="30" as="geometry"/>
        </mxCell>
        <mxCell id="W3oitvMvnciTX-xYWSEt-57" value="" style="endArrow=classic;html=1;fontSize=15;entryX=0.704;entryY=1.024;entryDx=0;entryDy=0;entryPerimeter=0;" parent="1" target="W3oitvMvnciTX-xYWSEt-49" edge="1">
          <mxGeometry width="50" height="50" relative="1" as="geometry">
            <mxPoint x="411" y="1330" as="sourcePoint"/>
            <mxPoint x="380" y="1300" as="targetPoint"/>
            <Array as="points">
              <mxPoint x="410" y="1240"/>
            </Array>
          </mxGeometry>
        </mxCell>
        <mxCell id="W3oitvMvnciTX-xYWSEt-60" value="" style="endArrow=classic;html=1;fontSize=15;entryX=0.855;entryY=0.855;entryDx=0;entryDy=0;entryPerimeter=0;exitX=-0.001;exitY=0.653;exitDx=0;exitDy=0;exitPerimeter=0;" parent="1" source="W3oitvMvnciTX-xYWSEt-40" target="W3oitvMvnciTX-xYWSEt-39" edge="1">
          <mxGeometry width="50" height="50" relative="1" as="geometry">
            <mxPoint x="294" y="1381" as="sourcePoint"/>
            <mxPoint x="300" y="1400" as="targetPoint"/>
          </mxGeometry>
        </mxCell>
        <mxCell id="W3oitvMvnciTX-xYWSEt-61" value="MQ" style="text;html=1;strokeColor=none;fillColor=none;align=center;verticalAlign=middle;whiteSpace=wrap;rounded=0;fontSize=15;" parent="1" vertex="1">
          <mxGeometry x="640" y="1320" width="40" height="20" as="geometry"/>
        </mxCell>
        <mxCell id="W3oitvMvnciTX-xYWSEt-63" value="支付网关" style="text;html=1;strokeColor=none;fillColor=none;align=center;verticalAlign=middle;whiteSpace=wrap;rounded=0;fontSize=21;" parent="1" vertex="1">
          <mxGeometry x="720" y="1255" width="90" height="30" as="geometry"/>
        </mxCell>
        <mxCell id="W3oitvMvnciTX-xYWSEt-64" value="组装支付参数" style="text;html=1;strokeColor=#d79b00;fillColor=#ffe6cc;align=center;verticalAlign=middle;whiteSpace=wrap;rounded=0;fontSize=12;" parent="1" vertex="1">
          <mxGeometry x="620" y="1360" width="80" height="20" as="geometry"/>
        </mxCell>
        <mxCell id="W3oitvMvnciTX-xYWSEt-68" value="" style="edgeStyle=orthogonalEdgeStyle;rounded=0;orthogonalLoop=1;jettySize=auto;html=1;fontSize=12;" parent="1" source="W3oitvMvnciTX-xYWSEt-66" target="W3oitvMvnciTX-xYWSEt-67" edge="1">
          <mxGeometry relative="1" as="geometry"/>
        </mxCell>
        <mxCell id="W3oitvMvnciTX-xYWSEt-66" value="风控" style="rounded=1;whiteSpace=wrap;html=1;absoluteArcSize=1;arcSize=14;strokeWidth=2;fontSize=16;fillColor=#dae8fc;strokeColor=#6c8ebf;" parent="1" vertex="1">
          <mxGeometry x="730" y="1320" width="90" height="60" as="geometry"/>
        </mxCell>
        <mxCell id="F85r_ZD3xrN6bj5FwzcK-2" value="" style="edgeStyle=orthogonalEdgeStyle;rounded=0;orthogonalLoop=1;jettySize=auto;html=1;fontSize=19;" edge="1" parent="1" source="W3oitvMvnciTX-xYWSEt-67" target="F85r_ZD3xrN6bj5FwzcK-1">
          <mxGeometry relative="1" as="geometry"/>
        </mxCell>
        <mxCell id="W3oitvMvnciTX-xYWSEt-67" value="路由" style="rounded=1;whiteSpace=wrap;html=1;absoluteArcSize=1;arcSize=14;strokeWidth=2;fontSize=16;fillColor=#dae8fc;strokeColor=#6c8ebf;" parent="1" vertex="1">
          <mxGeometry x="842.5" y="1320" width="77.5" height="60" as="geometry"/>
        </mxCell>
        <mxCell id="F85r_ZD3xrN6bj5FwzcK-1" value="支付" style="rounded=1;whiteSpace=wrap;html=1;absoluteArcSize=1;arcSize=14;strokeWidth=2;fontSize=16;fillColor=#dae8fc;strokeColor=#6c8ebf;" vertex="1" parent="1">
          <mxGeometry x="950" y="1320" width="77.5" height="60" as="geometry"/>
        </mxCell>
        <mxCell id="W3oitvMvnciTX-xYWSEt-88" value="终态获取&lt;br&gt;(常驻进程)" style="rounded=1;whiteSpace=wrap;html=1;absoluteArcSize=1;arcSize=14;strokeWidth=2;fontSize=16;fillColor=#dae8fc;strokeColor=#6c8ebf;" parent="1" vertex="1">
          <mxGeometry x="1040" y="1320" width="80" height="60" as="geometry"/>
        </mxCell>
        <mxCell id="W3oitvMvnciTX-xYWSEt-73" value="支付通道" style="text;html=1;strokeColor=none;fillColor=none;align=center;verticalAlign=middle;whiteSpace=wrap;rounded=0;fontSize=19;" parent="1" vertex="1">
          <mxGeometry x="820" y="1060" width="80" height="30" as="geometry"/>
        </mxCell>
        <mxCell id="W3oitvMvnciTX-xYWSEt-74" value="微信" style="rounded=1;whiteSpace=wrap;html=1;absoluteArcSize=1;arcSize=14;strokeWidth=2;fontSize=16;fillColor=#dae8fc;strokeColor=#6c8ebf;" parent="1" vertex="1">
          <mxGeometry x="832.5" y="1110" width="77.5" height="40" as="geometry"/>
        </mxCell>
        <mxCell id="W3oitvMvnciTX-xYWSEt-75" value="支付宝" style="rounded=1;whiteSpace=wrap;html=1;absoluteArcSize=1;arcSize=14;strokeWidth=2;fontSize=16;fillColor=#dae8fc;strokeColor=#6c8ebf;" parent="1" vertex="1">
          <mxGeometry x="990" y="1110" width="80" height="40" as="geometry"/>
        </mxCell>
        <mxCell id="W3oitvMvnciTX-xYWSEt-76" value="京东" style="rounded=1;whiteSpace=wrap;html=1;absoluteArcSize=1;arcSize=14;strokeWidth=2;fontSize=16;fillColor=#dae8fc;strokeColor=#6c8ebf;" parent="1" vertex="1">
          <mxGeometry x="1080" y="1110" width="80" height="40" as="geometry"/>
        </mxCell>
        <mxCell id="W3oitvMvnciTX-xYWSEt-79" value="RPC" style="text;html=1;strokeColor=none;fillColor=none;align=center;verticalAlign=middle;whiteSpace=wrap;rounded=0;fontSize=19;" parent="1" vertex="1">
          <mxGeometry x="980" y="1220" width="40" height="20" as="geometry"/>
        </mxCell>
        <mxCell id="W3oitvMvnciTX-xYWSEt-82" value="异步或MQ" style="text;html=1;strokeColor=none;fillColor=none;align=center;verticalAlign=middle;whiteSpace=wrap;rounded=0;fontSize=19;" parent="1" vertex="1">
          <mxGeometry x="885" y="1440" width="95" height="20" as="geometry"/>
        </mxCell>
        <mxCell id="W3oitvMvnciTX-xYWSEt-83" value="结果处理" style="text;html=1;strokeColor=none;fillColor=none;align=center;verticalAlign=middle;whiteSpace=wrap;rounded=0;fontSize=19;" parent="1" vertex="1">
          <mxGeometry x="730" y="1510" width="100" height="20" as="geometry"/>
        </mxCell>
        <mxCell id="W3oitvMvnciTX-xYWSEt-84" value="订单更新处理" style="rounded=1;whiteSpace=wrap;html=1;absoluteArcSize=1;arcSize=14;strokeWidth=2;fontSize=16;fillColor=#dae8fc;strokeColor=#6c8ebf;" parent="1" vertex="1">
          <mxGeometry x="740" y="1560" width="100" height="60" as="geometry"/>
        </mxCell>
        <mxCell id="W3oitvMvnciTX-xYWSEt-90" value="" style="rounded=1;whiteSpace=wrap;html=1;absoluteArcSize=1;arcSize=14;strokeWidth=2;dashed=1;" parent="1" vertex="1">
          <mxGeometry x="1180" y="1290" width="220" height="100" as="geometry"/>
        </mxCell>
        <mxCell id="W3oitvMvnciTX-xYWSEt-91" value="主动查询" style="rounded=1;whiteSpace=wrap;html=1;absoluteArcSize=1;arcSize=14;strokeWidth=2;fontSize=16;fillColor=#dae8fc;strokeColor=#6c8ebf;" parent="1" vertex="1">
          <mxGeometry x="1190" y="1320" width="80" height="40" as="geometry"/>
        </mxCell>
        <mxCell id="W3oitvMvnciTX-xYWSEt-92" value="异步回调通知" style="rounded=1;whiteSpace=wrap;html=1;absoluteArcSize=1;arcSize=14;strokeWidth=2;fontSize=16;fillColor=#dae8fc;strokeColor=#6c8ebf;" parent="1" vertex="1">
          <mxGeometry x="1290" y="1320" width="100" height="40" as="geometry"/>
        </mxCell>
        <mxCell id="W3oitvMvnciTX-xYWSEt-93" value="" style="endArrow=classic;html=1;fontSize=19;entryX=-0.013;entryY=0.588;entryDx=0;entryDy=0;entryPerimeter=0;exitX=1;exitY=0.5;exitDx=0;exitDy=0;" parent="1" source="W3oitvMvnciTX-xYWSEt-88" target="W3oitvMvnciTX-xYWSEt-90" edge="1">
          <mxGeometry width="50" height="50" relative="1" as="geometry">
            <mxPoint x="1070" y="1390" as="sourcePoint"/>
            <mxPoint x="1120" y="1340" as="targetPoint"/>
          </mxGeometry>
        </mxCell>
        <mxCell id="W3oitvMvnciTX-xYWSEt-94" value="其它处理" style="rounded=1;whiteSpace=wrap;html=1;absoluteArcSize=1;arcSize=14;strokeWidth=2;fontSize=16;fillColor=#dae8fc;strokeColor=#6c8ebf;" parent="1" vertex="1">
          <mxGeometry x="905" y="1560" width="100" height="60" as="geometry"/>
        </mxCell>
        <mxCell id="F85r_ZD3xrN6bj5FwzcK-3" value="" style="endArrow=classic;html=1;fontSize=19;" edge="1" parent="1">
          <mxGeometry width="50" height="50" relative="1" as="geometry">
            <mxPoint x="976" y="1320" as="sourcePoint"/>
            <mxPoint x="976" y="1174" as="targetPoint"/>
          </mxGeometry>
        </mxCell>
      </root>
    </mxGraphModel>
  </diagram>
</mxfile>
